<?xml version="1.0" encoding="UTF-8"?>
<!DOCTYPE svg PUBLIC "-//W3C//DTD SVG 1.1//EN" "http://www.w3.org/Graphics/SVG/1.1/DTD/svg11.dtd">
<svg xmlns="http://www.w3.org/2000/svg" version="1.1" width="179px" height="179px" style="shape-rendering:geometricPrecision; text-rendering:geometricPrecision; image-rendering:optimizeQuality; fill-rule:evenodd; clip-rule:evenodd" xmlns:xlink="http://www.w3.org/1999/xlink">
<g><path style="opacity:1" fill="#5ff5fe" d="M -0.5,-0.5 C 59.1667,-0.5 118.833,-0.5 178.5,-0.5C 178.5,59.1667 178.5,118.833 178.5,178.5C 118.833,178.5 59.1667,178.5 -0.5,178.5C -0.5,118.833 -0.5,59.1667 -0.5,-0.5 Z"/></g>
<g><path style="opacity:1" fill="#fdfefe" d="M 77.5,13.5 C 78.8333,13.5 80.1667,13.5 81.5,13.5C 81.5,20.8333 81.5,28.1667 81.5,35.5C 59.6077,39.7313 45.2744,52.398 38.5,73.5C 37.0762,75.5145 36.4095,77.8478 36.5,80.5C 35.4704,116.964 52.9704,137.63 89,142.5C 106.109,141.86 120.276,135.193 131.5,122.5C 138.166,125.831 144.499,129.664 150.5,134C 131.843,157.45 107.509,167.45 77.5,164C 42.574,156.074 21.4073,134.574 14,99.5C 11.0077,61.6388 26.5077,34.4722 60.5,18C 66.0419,15.9266 71.7086,14.4266 77.5,13.5 Z"/></g>
<g><path style="opacity:1" fill="#fdfefe" d="M 97.5,13.5 C 128.898,17.2942 150.398,33.9608 162,63.5C 167.39,82.5259 166.39,101.193 159,119.5C 152.368,115.698 145.868,111.698 139.5,107.5C 148.502,75.3353 137.836,52.1686 107.5,38C 104.373,37.6082 101.373,36.7749 98.5,35.5C 97.5027,28.1968 97.1694,20.8635 97.5,13.5 Z"/></g>
<g><path style="opacity:1" fill="#b5fafe" d="M 77.5,13.5 C 78.9187,12.5489 80.5853,12.2155 82.5,12.5C 82.8254,20.3516 82.492,28.0182 81.5,35.5C 81.5,28.1667 81.5,20.8333 81.5,13.5C 80.1667,13.5 78.8333,13.5 77.5,13.5 Z"/></g>
<g><path style="opacity:1" fill="#f8fefe" d="M 85.5,54.5 C 87.9892,54.2978 90.3225,54.7978 92.5,56C 102.167,62.5 111.833,69 121.5,75.5C 122.665,83.8134 122.832,92.1467 122,100.5C 110.88,107.972 99.7133,115.305 88.5,122.5C 76.437,115.716 64.937,108.049 54,99.5C 53.3333,91.8333 53.3333,84.1667 54,76.5C 64.6794,69.3036 75.1794,61.9703 85.5,54.5 Z"/></g>
<g><path style="opacity:1" fill="#63f5fe" d="M 83.5,62.5 C 84.8048,64.3972 85.4714,66.7305 85.5,69.5C 85.4728,72.0895 85.1394,74.5895 84.5,77C 80.6091,79.7343 76.6091,82.2343 72.5,84.5C 68.957,83.1292 65.7904,81.1292 63,78.5C 62.3828,77.5509 62.5494,76.7175 63.5,76C 70.4051,71.7245 77.0718,67.2245 83.5,62.5 Z"/></g>
<g><path style="opacity:1" fill="#68f5fe" d="M 90.5,62.5 C 97.7751,66.1402 104.775,70.3069 111.5,75C 113.255,75.7199 114.089,76.8866 114,78.5C 110.816,80.7582 107.483,82.7582 104,84.5C 99.601,82.384 95.4343,79.884 91.5,77C 90.5308,72.2633 90.1975,67.43 90.5,62.5 Z"/></g>
<g><path style="opacity:1" fill="#b7fafd" d="M 38.5,73.5 C 38.5905,76.1522 37.9238,78.4855 36.5,80.5C 36.4095,77.8478 37.0762,75.5145 38.5,73.5 Z"/></g>
<g><path style="opacity:1" fill="#69f5fe" d="M 86.5,81.5 C 87.8734,81.3433 89.2068,81.51 90.5,82C 93.3362,84.0074 96.0029,86.1741 98.5,88.5C 95.1667,90.8333 91.8333,93.1667 88.5,95.5C 84.6641,93.4164 80.9974,91.083 77.5,88.5C 80.7111,86.3996 83.7111,84.0663 86.5,81.5 Z"/></g>
<g><path style="opacity:1" fill="#76f6fe" d="M 115.5,83.5 C 116.777,84.6936 117.444,86.3603 117.5,88.5C 117.167,90.1667 116.833,91.8333 116.5,93.5C 113.991,92.0787 111.657,90.4121 109.5,88.5C 111.519,86.8103 113.519,85.1436 115.5,83.5 Z"/></g>
<g><path style="opacity:1" fill="#6ff5fe" d="M 59.5,83.5 C 68.4903,86.4658 68.6569,89.7991 60,93.5C 59.5017,90.1832 59.335,86.8499 59.5,83.5 Z"/></g>
<g><path style="opacity:1" fill="#64f5fe" d="M 92.5,113.5 C 91.5151,109.366 91.1818,105.032 91.5,100.5C 95.4854,97.3632 99.6521,94.3632 104,91.5C 107.586,93.7093 111.086,96.0426 114.5,98.5C 107.522,103.992 100.188,108.992 92.5,113.5 Z"/></g>
<g><path style="opacity:1" fill="#65f5fe" d="M 71.5,91.5 C 75.9447,93.8937 80.278,96.5604 84.5,99.5C 85.8333,104.5 85.8333,109.5 84.5,114.5C 76.8333,109.333 69.1667,104.167 61.5,99C 65.0804,96.7226 68.4137,94.2226 71.5,91.5 Z"/></g>
<g><path style="opacity:1" fill="#a3f8fe" d="M 91.5,100.5 C 91.1818,105.032 91.5151,109.366 92.5,113.5C 92.44,114.043 92.1067,114.376 91.5,114.5C 90.1876,109.682 90.1876,105.015 91.5,100.5 Z"/></g>
</svg>
